<svg width="26" height="32" fill="none" xmlns="http://www.w3.org/2000/svg"><path d="M14.4 11.2H16v3.2h-4.8V8h3.2v3.2zm8.8 0-3.392-3.392 2-2L25.6 9.6v3.2h-3.2v1.6h-4.8v-3.2h5.6zm-8.8-8.8V0h-1.6v3.2h1.6v3.2h-3.2V3.2H8V0H6.4v3.2H3.2v1.6H0V3.2C0 1.424 1.424 0 3.2 0H16l3.776 3.776-2 2L14.4 2.4zm11.2 26.4a3.2 3.2 0 0 1-3.2 3.2h-3.2v-3.2h3.2v-1.6h3.2v1.6zm-3.2-8h3.2v4.8h-3.2v-4.8zM12.8 32v-3.2h4.8V32h-4.8zm-6.4 0v-3.2h4.8V32H6.4zm-3.2 0A3.2 3.2 0 0 1 0 28.8v-3.2h3.2v3.2h1.6V32H3.2zM0 19.2h3.2V24H0v-4.8zm0-6.4h3.2v4.8H0v-4.8zm22.4 1.6h3.2v4.8h-3.2v-4.8zM0 6.4h3.2v4.8H0V6.4z" fill="#ABB5BE"/></svg>