<svg width="26" height="32" fill="none" xmlns="http://www.w3.org/2000/svg"><path d="m16 0 9.6 9.6v19.2a3.2 3.2 0 0 1-3.2 3.2H3.2A3.2 3.2 0 0 1 0 28.8V3.2A3.2 3.2 0 0 1 3.2 0H16zm6.4 28.8V11.2h-8v-8H3.2v25.6h19.2zM11.072 16.496c-.384-1.232-1.232-5.168 1.008-5.232 2.24-.064.768 4.992.768 4.992.624 2.384 3.232 4.096 3.232 4.096.8-.24 5.36-.768 4.72 1.6-.688 2.368-5.6.144-5.6.144-3.12.224-5.456 1.056-5.456 1.056C7.936 26.528 5.824 28 4.96 26.576c-1.072-1.776 3.408-4.064 3.408-4.064 2.32-3.76 2.672-5.952 2.704-6.016zm1.04 1.344c-.64 2.08-1.92 4.304-1.92 4.304 1.36-.544 4.336-1.168 4.336-1.168-1.824-1.6-2.384-3.12-2.416-3.136zm5.024 3.472s2.8 1.04 2.864.624c.112-.432-2.128-.816-2.864-.624zM8.08 23.696c-1.232.48-2.416 2.528-2.128 2.528.288.016 1.456-.96 2.128-2.528zm4.032-8.88c0-.08.688-2.688 0-2.768-.48-.048-.016 2.704 0 2.768z" fill="#000"/></svg>