<svg width="21" height="24" viewBox="0 0 21 24" fill="none" xmlns="http://www.w3.org/2000/svg">
<path d="M8.328 10.068C7.644 10.068 7.104 10.668 7.104 11.4C7.104 12.132 7.656 12.732 8.328 12.732C9.012 12.732 9.552 12.132 9.552 11.4C9.564 10.668 9.012 10.068 8.328 10.068ZM12.708 10.068C12.024 10.068 11.484 10.668 11.484 11.4C11.484 12.132 12.036 12.732 12.708 12.732C13.392 12.732 13.932 12.132 13.932 11.4C13.932 10.668 13.392 10.068 12.708 10.068Z" fill="white"/>
<path d="M18.54 0H2.46C1.104 0 0 1.104 0 2.472V18.696C0 20.064 1.104 21.168 2.46 21.168H16.068L15.432 18.948L16.968 20.376L18.42 21.72L21 24V2.472C21 1.104 19.896 0 18.54 0ZM13.908 15.672C13.908 15.672 13.476 15.156 13.116 14.7C14.688 14.256 15.288 13.272 15.288 13.272C14.796 13.596 14.328 13.824 13.908 13.98C13.308 14.232 12.732 14.4 12.168 14.496C11.1403 14.6852 10.0862 14.6812 9.06 14.484C8.45751 14.3661 7.86705 14.1934 7.296 13.968C6.99499 13.8522 6.7023 13.7159 6.42 13.56C6.384 13.536 6.348 13.524 6.312 13.5C6.288 13.488 6.276 13.476 6.264 13.464C6.048 13.344 5.928 13.26 5.928 13.26C5.928 13.26 6.504 14.22 8.028 14.676C7.668 15.132 7.224 15.672 7.224 15.672C4.572 15.588 3.564 13.848 3.564 13.848C3.564 9.984 5.292 6.852 5.292 6.852C7.02 5.556 8.664 5.592 8.664 5.592L8.784 5.736C6.624 6.36 5.628 7.308 5.628 7.308C5.628 7.308 5.892 7.164 6.336 6.96C7.62 6.396 8.64 6.24 9.06 6.204C9.132 6.192 9.192 6.18 9.264 6.18C11.3449 5.89835 13.4612 6.29384 15.3 7.308C15.3 7.308 14.352 6.408 12.312 5.784L12.48 5.592C12.48 5.592 14.124 5.556 15.852 6.852C15.852 6.852 17.58 9.984 17.58 13.848C17.58 13.848 16.56 15.588 13.908 15.672Z" fill="white"/>
</svg>
