<svg width="28" height="28" fill="none" xmlns="http://www.w3.org/2000/svg"><path d="M19.813 16.667c.107-.88.187-1.76.187-2.667 0-.907-.08-1.787-.187-2.667h4.507c.213.854.346 1.747.346 2.667 0 .92-.133 1.813-.346 2.667h-4.507zm-2.36 7.413c.8-1.48 1.413-3.08 1.84-4.747h3.934a10.707 10.707 0 0 1-5.774 4.747zm-.333-7.413h-6.24c-.134-.88-.214-1.76-.214-2.667 0-.907.08-1.8.214-2.667h6.24c.12.867.213 1.76.213 2.667 0 .907-.093 1.787-.213 2.667zM14 24.613c-1.107-1.6-2-3.373-2.547-5.28h5.094c-.547 1.907-1.44 3.68-2.547 5.28zM8.666 8.667H4.773a10.564 10.564 0 0 1 5.76-4.747c-.8 1.48-1.4 3.08-1.867 4.747zM4.773 19.333h3.893C9.133 21 9.733 22.6 10.534 24.08a10.677 10.677 0 0 1-5.76-4.747zM3.68 16.667A10.989 10.989 0 0 1 3.333 14c0-.92.133-1.813.347-2.667h4.506C8.08 12.213 8 13.093 8 14c0 .907.08 1.787.187 2.667H3.68zM14 3.373c1.107 1.6 2 3.387 2.547 5.294h-5.094C12 6.76 12.893 4.973 14 3.373zm9.227 5.294h-3.934a20.87 20.87 0 0 0-1.84-4.747 10.65 10.65 0 0 1 5.774 4.747zM14 .667C6.627.667.667 6.667.667 14A13.333 13.333 0 1 0 14 .667z" fill="#ABB5BE"/></svg>