<svg width="23" height="25" viewBox="0 0 23 25" fill="none" xmlns="http://www.w3.org/2000/svg">
<path d="M10.6259 1.7334C10.9653 0.755535 12.2499 0.755535 12.5904 1.7334L14.7862 8.37683C14.94 8.8171 15.3314 9.11022 15.7684 9.11022H21.1645C22.1616 9.11022 22.5965 10.4658 21.8126 11.1297L17.9727 14.9032C17.8007 15.0477 17.675 15.2479 17.6136 15.4752C17.5523 15.7025 17.5584 15.9452 17.6311 16.1684L19.0335 22.6601C19.375 23.7028 18.2697 24.5984 17.4338 23.9566L12.2181 20.3417C12.0395 20.2046 11.8265 20.131 11.6082 20.131C11.3898 20.131 11.1768 20.2046 10.9982 20.3417L5.78249 23.9566C4.94767 24.5984 3.8413 23.7017 4.18287 22.6601L5.58519 16.1684C5.65793 15.9452 5.66406 15.7025 5.6027 15.4752C5.54134 15.2479 5.41563 15.0477 5.24362 14.9032L1.40369 11.1297C0.618727 10.4658 1.05576 9.11022 2.05075 9.11022H7.44681C7.65928 9.111 7.86694 9.04129 8.04234 8.91033C8.21774 8.77937 8.3526 8.59333 8.42908 8.37683L10.6248 1.7334H10.6259Z" fill="#FFD600" stroke="#FFD600" stroke-linecap="round" stroke-linejoin="round"/>
</svg>
