<svg width="192" height="192" fill="none" xmlns="http://www.w3.org/2000/svg"><circle cx="96" cy="96" r="96" fill="#06F"/><path d="M113.278 66.52c0 3.916-1.743 7.673-4.844 10.443-3.101 2.77-7.307 4.326-11.692 4.326-4.386 0-8.592-1.557-11.693-4.326-3.101-2.77-4.843-6.527-4.843-10.444 0-3.917 1.742-7.673 4.843-10.443 3.101-2.77 7.307-4.326 11.693-4.326 4.385 0 8.591 1.556 11.692 4.326 3.101 2.77 4.844 6.526 4.844 10.443zM59.536 81.288c3.29 0 6.444-1.168 8.77-3.245 2.325-2.077 3.632-4.895 3.632-7.832 0-2.938-1.307-5.756-3.633-7.833-2.325-2.077-5.48-3.244-8.77-3.244-3.288 0-6.443 1.167-8.769 3.244-2.325 2.077-3.632 4.895-3.632 7.833 0 2.937 1.307 5.755 3.632 7.832 2.326 2.077 5.48 3.245 8.77 3.245zm74.411 0c3.29 0 6.444-1.168 8.77-3.245 2.326-2.077 3.632-4.895 3.632-7.832 0-2.938-1.306-5.756-3.632-7.833s-5.48-3.244-8.77-3.244c-3.289 0-6.443 1.167-8.769 3.244-2.326 2.077-3.633 4.895-3.633 7.833 0 2.937 1.307 5.755 3.633 7.832s5.48 3.245 8.769 3.245zM72.856 92.457c.675-1.143 1.687-2.1 2.926-2.766a8.678 8.678 0 0 1 4.105-1.019h33.709c2.108 0 4.13.748 5.621 2.08 1.491 1.331 2.328 3.137 2.328 5.02v22.439c-.021 5.428-2.273 10.661-6.327 14.705-4.055 4.045-9.63 6.619-15.668 7.236-6.039.617-12.121-.767-17.093-3.889-4.972-3.122-8.489-7.765-9.883-13.049a19.968 19.968 0 0 1-.636-5.003V95.773c0-1.196.33-2.326.918-3.315zm-7.12 3.315c0-1.181.183-2.326.522-3.408H47.134c-1.096 0-2.148.39-2.923 1.082-.776.692-1.211 1.631-1.211 2.61v18.462c0 2.568.748 5.091 2.172 7.321 1.424 2.23 3.475 4.09 5.949 5.396 2.474 1.307 5.287 2.015 8.161 2.054 2.874.039 5.71-.591 8.228-1.829a25.01 25.01 0 0 1-1.773-9.249V95.773zm62.01 22.439a25.012 25.012 0 0 1-1.773 9.249c2.518 1.238 5.354 1.868 8.228 1.829 2.874-.039 5.687-.747 8.161-2.054 2.475-1.306 4.525-3.166 5.949-5.396 1.424-2.23 2.173-4.753 2.172-7.321V96.058c0-.98-.435-1.919-1.211-2.611-.775-.693-1.826-1.082-2.923-1.082h-19.123c.339 1.086.52 2.227.52 3.408v22.439z" fill="#fff"/></svg>