<svg width="32" height="30" viewBox="0 0 32 30" fill="none" xmlns="http://www.w3.org/2000/svg">
<path d="M14.7042 1.88619C15.1522 0.704605 16.8476 0.704605 17.297 1.88619L20.1949 9.91366C20.3979 10.4457 20.9145 10.7999 21.4913 10.7999H28.613C29.929 10.7999 30.503 12.4378 29.4684 13.24L24.4005 17.7997C24.1734 17.9743 24.0075 18.2162 23.9265 18.4909C23.8456 18.7655 23.8537 19.0588 23.9497 19.3285L25.8004 27.1726C26.2512 28.4326 24.7924 29.5148 23.6893 28.7392L16.8056 24.3712C16.5698 24.2056 16.2887 24.1167 16.0006 24.1167C15.7124 24.1167 15.4313 24.2056 15.1956 24.3712L8.3119 28.7392C7.21011 29.5148 5.74993 28.4312 6.20073 27.1726L8.0515 19.3285C8.14751 19.0588 8.1556 18.7655 8.07461 18.4909C7.99362 18.2162 7.82772 17.9743 7.60071 17.7997L2.53278 13.24C1.4968 12.4378 2.07359 10.7999 3.38677 10.7999H10.5085C10.7889 10.8008 11.0629 10.7166 11.2944 10.5583C11.5259 10.4001 11.7039 10.1753 11.8048 9.91366L14.7028 1.88619H14.7042Z" fill="#F2C94C" stroke="#F2C94C" stroke-width="2" stroke-linecap="round" stroke-linejoin="round"/>
</svg>
