<svg width="192" height="192" fill="none" xmlns="http://www.w3.org/2000/svg"><circle cx="96" cy="96" r="96" fill="#06F"/><path d="M95.634 103.994H127a9.002 9.002 0 0 1 8.999 9.001v3.621a15.008 15.008 0 0 1-5.227 11.382c-6.263 5.377-15.222 8.002-26.781 8.002h-.715a7.015 7.015 0 0 0-.884-7.59l-.444-.48-8.92-8.897a21.94 21.94 0 0 0 2.6-15.043l.005.004zM73.996 89.991a17.993 17.993 0 0 1 16.29 10.358 18.006 18.006 0 0 1-2.451 19.152l11.29 11.258a3 3 0 0 1-3.9 4.541l-.34-.292-11.61-11.587a17.988 17.988 0 0 1-22.674-3.404A18.008 18.008 0 0 1 66 91.866a17.993 17.993 0 0 1 7.995-1.875zm0 6.001a11.996 11.996 0 0 0-11.998 12.002 12.003 12.003 0 0 0 11.998 12.003 12.003 12.003 0 0 0 0-24.005zM103.992 56a19.997 19.997 0 0 1 19.998 20.004 19.997 19.997 0 1 1-39.995 0 20.008 20.008 0 0 1 5.857-14.145A19.994 19.994 0 0 1 103.992 56z" fill="#fff"/></svg>