<svg width="214" height="214" viewBox="0 0 214 214" fill="none" xmlns="http://www.w3.org/2000/svg">
<path d="M155.627 59.52L85.3333 129.813L56.5 101.087L42.3333 117L85.3333 160L170.667 74.6667L155.627 59.52ZM106.667 0C47.7867 0 0 47.7867 0 106.667C0 165.547 47.7867 213.333 106.667 213.333C165.547 213.333 213.333 165.547 213.333 106.667C213.333 47.7867 165.547 0 106.667 0ZM106.667 192C59.52 192 21.3333 153.813 21.3333 106.667C21.3333 59.52 59.52 21.3333 106.667 21.3333C153.813 21.3333 192 59.52 192 106.667C192 153.813 153.813 192 106.667 192Z" fill="#B7CFB9"/>
</svg>
