<svg width="23" height="22" fill="none" xmlns="http://www.w3.org/2000/svg"><path d="M10.324 1.633c.32-.844 1.531-.844 1.852 0l2.07 5.734a.99.99 0 0 0 .926.633h5.087c.94 0 1.35 1.17.61 1.743L17.25 13a.968.968 0 0 0-.321 1.092l1.322 5.603c.322.9-.72 1.673-1.508 1.119l-4.917-3.12a1 1 0 0 0-1.15 0l-4.917 3.12c-.787.554-1.83-.22-1.508-1.12l1.322-5.602A.968.968 0 0 0 5.25 13L1.63 9.743C.89 9.17 1.304 8 2.24 8h5.087a.989.989 0 0 0 .926-.633l2.07-5.734h.001z" fill="#27AE60" stroke="#27AE60" stroke-width="2" stroke-linecap="round" stroke-linejoin="round"/></svg>