<svg width="136" height="136" viewBox="0 0 136 136" fill="none" xmlns="http://www.w3.org/2000/svg">
<g filter="url(#filter0_d)">
<rect x="4" y="4" width="128" height="128" rx="15" fill="white"/>
</g>
<path d="M4 19C4 10.7157 10.7157 4 19 4H117C125.284 4 132 10.7157 132 19V40H4V19Z" fill="#F44343"/>
<path d="M45.5708 14.4545V29H48.5538V19.4972H48.6745L52.4387 28.929H54.47L58.2342 19.5327H58.3549V29H61.3379V14.4545H57.5453L53.5396 24.2273H53.3691L49.3635 14.4545H45.5708ZM66.3787 29L67.4583 25.6832H72.7069L73.7864 29H77.0819L72.0676 14.4545H68.1046L63.0833 29H66.3787ZM68.2395 23.2827L70.0293 17.7784H70.1429L71.9327 23.2827H68.2395ZM78.8326 29H81.9078V23.8438H84.1522L86.9078 29H90.3027L87.2132 23.3466C88.8681 22.6364 89.7843 21.1946 89.7843 19.206C89.7843 16.3153 87.8738 14.4545 84.5712 14.4545H78.8326V29ZM81.9078 21.3722V16.9688H83.9817C85.7573 16.9688 86.6167 17.7571 86.6167 19.206C86.6167 20.6477 85.7573 21.3722 83.9959 21.3722H81.9078Z" fill="white"/>
<path d="M80.3765 98.344C82.9365 98.344 84.2165 99.432 84.2165 101.608C84.2165 103.869 82.9365 105 80.3765 105H58.7445C56.1418 105 54.8405 103.869 54.8405 101.608C54.8405 99.432 56.1418 98.344 58.7445 98.344H65.4005V69.16L59.2565 72.936C58.6592 73.2773 58.1258 73.448 57.6565 73.448C56.7605 73.448 55.9925 73.064 55.3525 72.296C54.7552 71.528 54.4565 70.6747 54.4565 69.736C54.4565 68.4987 55.0112 67.5387 56.1205 66.856L66.0405 60.712C67.3205 59.944 68.5365 59.56 69.6885 59.56C70.8832 59.56 71.8432 59.9227 72.5685 60.648C73.2938 61.3733 73.6565 62.376 73.6565 63.656V98.344H80.3765Z" fill="black"/>
<defs>
<filter id="filter0_d" x="0" y="0" width="136" height="136" filterUnits="userSpaceOnUse" color-interpolation-filters="sRGB">
<feFlood flood-opacity="0" result="BackgroundImageFix"/>
<feColorMatrix in="SourceAlpha" type="matrix" values="0 0 0 0 0 0 0 0 0 0 0 0 0 0 0 0 0 0 127 0"/>
<feOffset/>
<feGaussianBlur stdDeviation="2"/>
<feColorMatrix type="matrix" values="0 0 0 0 0 0 0 0 0 0 0 0 0 0 0 0 0 0 0.25 0"/>
<feBlend mode="normal" in2="BackgroundImageFix" result="effect1_dropShadow"/>
<feBlend mode="normal" in="SourceGraphic" in2="effect1_dropShadow" result="shape"/>
</filter>
</defs>
</svg>
