<svg width="136" height="136" fill="none" xmlns="http://www.w3.org/2000/svg"><g filter="url(#a)"><rect x="4" y="4" width="128" height="128" rx="15" fill="#fff"/></g><path d="M4 19c0-8.284 6.716-15 15-15h98c8.284 0 15 6.716 15 15v21H4V19z" fill="#F44343"/><path d="M45.57 14.454V29h2.984v-9.503h.12l3.765 9.432h2.031l3.764-9.396h.12V29h2.984V14.454h-3.793l-4.005 9.773h-.17l-4.006-9.773H45.57zM66.38 29l1.08-3.317h5.248L73.787 29h3.295l-5.014-14.546h-3.963L63.083 29h3.296zm1.86-5.717 1.79-5.505h.114l1.79 5.505h-3.694zM78.834 29h3.075v-5.156h2.244L86.908 29h3.395l-3.09-5.653c1.655-.71 2.571-2.152 2.571-4.141 0-2.89-1.91-4.752-5.213-4.752h-5.738V29zm3.075-7.628V16.97h2.074c1.775 0 2.635.788 2.635 2.237 0 1.442-.86 2.166-2.621 2.166h-2.088z" fill="#fff"/><path d="M60.966 98.344c2.56 0 3.84 1.088 3.84 3.264 0 2.261-1.28 3.392-3.84 3.392h-24.32c-1.11 0-1.984-.32-2.624-.96-.64-.683-.96-1.515-.96-2.496 0-1.28.49-2.432 1.472-3.456l14.592-15.68c1.792-1.963 3.093-3.755 3.904-5.376.853-1.664 1.28-3.307 1.28-4.928 0-2.005-.576-3.541-1.728-4.608-1.152-1.067-2.795-1.6-4.928-1.6-1.75 0-3.456.341-5.12 1.024-1.622.64-3.264 1.536-4.928 2.688-.427.299-.854.555-1.28.768-.427.17-.854.256-1.28.256-.726 0-1.366-.341-1.92-1.024-.512-.683-.768-1.493-.768-2.432 0-.64.106-1.195.32-1.664.256-.47.64-.917 1.152-1.344 1.877-1.493 4.074-2.667 6.592-3.52 2.517-.896 5.034-1.344 7.552-1.344 4.394 0 7.893 1.11 10.496 3.328 2.645 2.219 3.968 5.205 3.968 8.96 0 2.603-.555 5.056-1.664 7.36-1.11 2.261-2.987 4.8-5.632 7.616L44.07 98.344h16.896zm24.293-39.04c5.718 0 10.112 1.941 13.184 5.824 3.115 3.84 4.672 9.344 4.672 16.512 0 4.907-.725 9.173-2.176 12.8-1.45 3.584-3.541 6.336-6.272 8.256-2.688 1.92-5.866 2.88-9.536 2.88-2.432 0-4.885-.427-7.36-1.28-2.432-.896-4.501-2.091-6.208-3.584-.554-.469-.96-.917-1.216-1.344-.213-.47-.32-1.024-.32-1.664 0-.939.256-1.728.768-2.368.555-.683 1.195-1.024 1.92-1.024.427 0 .832.085 1.216.256.384.128.854.363 1.408.704 3.542 2.475 6.699 3.712 9.472 3.712 3.115 0 5.568-1.43 7.36-4.288 1.792-2.901 2.73-6.955 2.816-12.16-.981 1.92-2.453 3.456-4.416 4.608-1.962 1.11-4.16 1.664-6.592 1.664-2.688 0-5.077-.597-7.168-1.792-2.09-1.237-3.733-2.944-4.928-5.12-1.152-2.219-1.728-4.736-1.728-7.552 0-2.901.64-5.483 1.92-7.744 1.323-2.304 3.115-4.096 5.376-5.376 2.304-1.28 4.907-1.92 7.808-1.92zm.448 22.976c2.39 0 4.31-.747 5.76-2.24 1.494-1.536 2.24-3.52 2.24-5.952 0-2.475-.746-4.459-2.24-5.952-1.45-1.536-3.37-2.304-5.76-2.304-2.346 0-4.224.768-5.632 2.304-1.408 1.493-2.112 3.477-2.112 5.952s.704 4.459 2.112 5.952c1.408 1.493 3.286 2.24 5.632 2.24z" fill="#000"/><defs><filter id="a" x="0" y="0" width="136" height="136" filterUnits="userSpaceOnUse" color-interpolation-filters="sRGB"><feFlood flood-opacity="0" result="BackgroundImageFix"/><feColorMatrix in="SourceAlpha" values="0 0 0 0 0 0 0 0 0 0 0 0 0 0 0 0 0 0 127 0"/><feOffset/><feGaussianBlur stdDeviation="2"/><feColorMatrix values="0 0 0 0 0 0 0 0 0 0 0 0 0 0 0 0 0 0 0.25 0"/><feBlend in2="BackgroundImageFix" result="effect1_dropShadow"/><feBlend in="SourceGraphic" in2="effect1_dropShadow" result="shape"/></filter></defs></svg>