<svg width="136" height="136" viewBox="0 0 136 136" fill="none" xmlns="http://www.w3.org/2000/svg">
<g filter="url(#filter0_d)">
<rect x="4" y="4" width="128" height="128" rx="15" fill="white"/>
</g>
<path d="M4 19C4 10.7157 10.7157 4 19 4H117C125.284 4 132 10.7157 132 19V40H4V19Z" fill="#F44343"/>
<path d="M49.6802 29H52.7555V22.9915H58.6717V20.456H52.7555V16.9901H59.3109V14.4545H49.6802V29ZM61.3794 29H71.209V26.4645H64.4547V22.9915H70.6763V20.456H64.4547V16.9901H71.1806V14.4545H61.3794V29ZM73.6255 29H79.84C83.1071 29 84.8471 27.2955 84.8471 24.9801C84.8471 22.8281 83.3059 21.5284 81.6511 21.4503V21.3082C83.1639 20.9673 84.2789 19.8949 84.2789 18.1832C84.2789 16.0028 82.6596 14.4545 79.4494 14.4545H73.6255V29ZM76.7008 26.4858V22.6222H79.2789C80.7562 22.6222 81.6724 23.4744 81.6724 24.6747C81.6724 25.7685 80.9267 26.4858 79.2079 26.4858H76.7008ZM76.7008 20.5412V16.9403H79.0375C80.4011 16.9403 81.1752 17.6435 81.1752 18.6946C81.1752 19.8452 80.2377 20.5412 78.9806 20.5412H76.7008Z" fill="white"/>
<path d="M60.9345 98.344C63.4945 98.344 64.7745 99.432 64.7745 101.608C64.7745 103.869 63.4945 105 60.9345 105H36.6145C35.5052 105 34.6305 104.68 33.9905 104.04C33.3505 103.357 33.0305 102.525 33.0305 101.544C33.0305 100.264 33.5212 99.112 34.5025 98.088L49.0945 82.408C50.8865 80.4453 52.1878 78.6533 52.9985 77.032C53.8518 75.368 54.2785 73.7253 54.2785 72.104C54.2785 70.0987 53.7025 68.5627 52.5505 67.496C51.3985 66.4293 49.7558 65.896 47.6225 65.896C45.8732 65.896 44.1665 66.2373 42.5025 66.92C40.8812 67.56 39.2385 68.456 37.5745 69.608C37.1478 69.9067 36.7212 70.1627 36.2945 70.376C35.8678 70.5467 35.4412 70.632 35.0145 70.632C34.2892 70.632 33.6492 70.2907 33.0945 69.608C32.5825 68.9253 32.3265 68.1147 32.3265 67.176C32.3265 66.536 32.4332 65.9813 32.6465 65.512C32.9025 65.0427 33.2865 64.5947 33.7985 64.168C35.6758 62.6747 37.8732 61.5013 40.3905 60.648C42.9078 59.752 45.4252 59.304 47.9425 59.304C52.3372 59.304 55.8358 60.4133 58.4385 62.632C61.0838 64.8507 62.4065 67.8373 62.4065 71.592C62.4065 74.1947 61.8518 76.648 60.7425 78.952C59.6332 81.2133 57.7558 83.752 55.1105 86.568L44.0385 98.344H60.9345ZM99.372 98.344C101.932 98.344 103.212 99.432 103.212 101.608C103.212 103.869 101.932 105 99.372 105H75.052C73.9427 105 73.068 104.68 72.428 104.04C71.788 103.357 71.468 102.525 71.468 101.544C71.468 100.264 71.9587 99.112 72.94 98.088L87.532 82.408C89.324 80.4453 90.6253 78.6533 91.436 77.032C92.2893 75.368 92.716 73.7253 92.716 72.104C92.716 70.0987 92.14 68.5627 90.988 67.496C89.836 66.4293 88.1933 65.896 86.06 65.896C84.3107 65.896 82.604 66.2373 80.94 66.92C79.3187 67.56 77.676 68.456 76.012 69.608C75.5853 69.9067 75.1587 70.1627 74.732 70.376C74.3053 70.5467 73.8787 70.632 73.452 70.632C72.7267 70.632 72.0867 70.2907 71.532 69.608C71.02 68.9253 70.764 68.1147 70.764 67.176C70.764 66.536 70.8707 65.9813 71.084 65.512C71.34 65.0427 71.724 64.5947 72.236 64.168C74.1133 62.6747 76.3107 61.5013 78.828 60.648C81.3453 59.752 83.8627 59.304 86.38 59.304C90.7747 59.304 94.2733 60.4133 96.876 62.632C99.5213 64.8507 100.844 67.8373 100.844 71.592C100.844 74.1947 100.289 76.648 99.18 78.952C98.0707 81.2133 96.1933 83.752 93.548 86.568L82.476 98.344H99.372Z" fill="black"/>
<defs>
<filter id="filter0_d" x="0" y="0" width="136" height="136" filterUnits="userSpaceOnUse" color-interpolation-filters="sRGB">
<feFlood flood-opacity="0" result="BackgroundImageFix"/>
<feColorMatrix in="SourceAlpha" type="matrix" values="0 0 0 0 0 0 0 0 0 0 0 0 0 0 0 0 0 0 127 0"/>
<feOffset/>
<feGaussianBlur stdDeviation="2"/>
<feColorMatrix type="matrix" values="0 0 0 0 0 0 0 0 0 0 0 0 0 0 0 0 0 0 0.25 0"/>
<feBlend mode="normal" in2="BackgroundImageFix" result="effect1_dropShadow"/>
<feBlend mode="normal" in="SourceGraphic" in2="effect1_dropShadow" result="shape"/>
</filter>
</defs>
</svg>
