<svg width="136" height="136" fill="none" xmlns="http://www.w3.org/2000/svg"><g filter="url(#a)"><rect x="4" y="4" width="128" height="128" rx="15" fill="#fff"/></g><path d="M4 19c0-8.284 6.716-15 15-15h98c8.284 0 15 6.716 15 15v21H4V19z" fill="#F44343"/><path d="m50.254 29 1.08-3.317h5.248L57.662 29h3.295l-5.014-14.546H51.98L46.958 29h3.296zm1.86-5.717 1.79-5.505h.114l1.79 5.505h-3.694zM62.709 29h3.075v-4.716h2.585c3.345 0 5.291-1.996 5.291-4.9 0-2.891-1.91-4.93-5.213-4.93h-5.738V29zm3.075-7.18v-4.851h2.074c1.775 0 2.635.966 2.635 2.415 0 1.441-.86 2.436-2.621 2.436h-2.088zM75.657 29h3.075v-5.156h2.244L83.732 29h3.395l-3.09-5.653c1.655-.71 2.572-2.152 2.572-4.141 0-2.89-1.911-4.752-5.214-4.752h-5.738V29zm3.075-7.628V16.97h2.074c1.776 0 2.635.788 2.635 2.237 0 1.442-.86 2.166-2.62 2.166h-2.089z" fill="#fff"/><path d="M61.189 98.344c2.56 0 3.84 1.088 3.84 3.264 0 2.261-1.28 3.392-3.84 3.392H39.557c-2.603 0-3.904-1.131-3.904-3.392 0-2.176 1.301-3.264 3.904-3.264h6.656V69.16l-6.144 3.776c-.597.341-1.13.512-1.6.512-.896 0-1.664-.384-2.304-1.152-.597-.768-.896-1.621-.896-2.56 0-1.237.555-2.197 1.664-2.88l9.92-6.144c1.28-.768 2.496-1.152 3.648-1.152 1.195 0 2.155.363 2.88 1.088.725.725 1.088 1.728 1.088 3.008v34.688h6.72zm28.263-22.272c2.688 0 5.077.619 7.168 1.856 2.09 1.195 3.712 2.901 4.864 5.12 1.195 2.176 1.792 4.672 1.792 7.488 0 2.901-.661 5.504-1.984 7.808-1.28 2.261-3.072 4.032-5.376 5.312-2.261 1.28-4.843 1.92-7.744 1.92-5.717 0-10.133-1.92-13.248-5.76-3.072-3.883-4.608-9.408-4.608-16.576 0-4.907.725-9.152 2.176-12.736 1.45-3.627 3.52-6.4 6.208-8.32 2.73-1.92 5.93-2.88 9.6-2.88 2.432 0 4.864.448 7.296 1.344 2.475.853 4.565 2.027 6.272 3.52.555.47.939.939 1.152 1.408.256.427.384.96.384 1.6 0 .939-.277 1.75-.832 2.432-.512.64-1.131.96-1.856.96-.427 0-.832-.064-1.216-.192a12.47 12.47 0 0 1-1.408-.768c-3.541-2.475-6.699-3.712-9.472-3.712-3.115 0-5.568 1.45-7.36 4.352-1.792 2.859-2.73 6.89-2.816 12.096.981-1.92 2.453-3.435 4.416-4.544 1.963-1.152 4.16-1.728 6.592-1.728zm-1.728 22.976c2.347 0 4.224-.747 5.632-2.24 1.408-1.536 2.112-3.541 2.112-6.016s-.704-4.459-2.112-5.952c-1.408-1.493-3.285-2.24-5.632-2.24-2.39 0-4.33.768-5.824 2.304-1.45 1.493-2.176 3.456-2.176 5.888 0 2.475.725 4.48 2.176 6.016 1.493 1.493 3.435 2.24 5.824 2.24z" fill="#000"/><defs><filter id="a" x="0" y="0" width="136" height="136" filterUnits="userSpaceOnUse" color-interpolation-filters="sRGB"><feFlood flood-opacity="0" result="BackgroundImageFix"/><feColorMatrix in="SourceAlpha" values="0 0 0 0 0 0 0 0 0 0 0 0 0 0 0 0 0 0 127 0"/><feOffset/><feGaussianBlur stdDeviation="2"/><feColorMatrix values="0 0 0 0 0 0 0 0 0 0 0 0 0 0 0 0 0 0 0.25 0"/><feBlend in2="BackgroundImageFix" result="effect1_dropShadow"/><feBlend in="SourceGraphic" in2="effect1_dropShadow" result="shape"/></filter></defs></svg>