<svg width="136" height="136" viewBox="0 0 136 136" fill="none" xmlns="http://www.w3.org/2000/svg">
<g filter="url(#filter0_d)">
<rect x="4" y="4" width="128" height="128" rx="15" fill="white"/>
</g>
<path d="M4 19C4 10.7157 10.7157 4 19 4H117C125.284 4 132 10.7157 132 19V40H4V19Z" fill="#F44343"/>
<path d="M53.551 14.4545V24.5966C53.5439 25.9957 52.9189 26.7344 51.7825 26.7344C50.71 26.7344 50.014 26.0668 49.9927 24.9091H46.9316C46.9174 27.8139 48.9913 29.1989 51.6262 29.1989C54.5737 29.1989 56.5836 27.4162 56.5907 24.5966V14.4545H53.551ZM61.6404 29L62.72 25.6832H67.9686L69.0481 29H72.3436L67.3294 14.4545H63.3663L58.345 29H61.6404ZM63.5012 23.2827L65.291 17.7784H65.4047L67.1944 23.2827H63.5012ZM86.2605 14.4545H83.1994V23.6023H83.0716L76.7931 14.4545H74.0943V29H77.1696V19.8452H77.2761L83.6042 29H86.2605V14.4545Z" fill="white"/>
<path d="M61.189 98.344C63.749 98.344 65.029 99.432 65.029 101.608C65.029 103.869 63.749 105 61.189 105H39.557C36.9543 105 35.653 103.869 35.653 101.608C35.653 99.432 36.9543 98.344 39.557 98.344H46.213V69.16L40.069 72.936C39.4717 73.2773 38.9383 73.448 38.469 73.448C37.573 73.448 36.805 73.064 36.165 72.296C35.5677 71.528 35.269 70.6747 35.269 69.736C35.269 68.4987 35.8237 67.5387 36.933 66.856L46.853 60.712C48.133 59.944 49.349 59.56 50.501 59.56C51.6957 59.56 52.6557 59.9227 53.381 60.648C54.1063 61.3733 54.469 62.376 54.469 63.656V98.344H61.189ZM99.564 98.344C102.124 98.344 103.404 99.432 103.404 101.608C103.404 103.869 102.124 105 99.564 105H77.932C75.3293 105 74.028 103.869 74.028 101.608C74.028 99.432 75.3293 98.344 77.932 98.344H84.588V69.16L78.444 72.936C77.8467 73.2773 77.3133 73.448 76.844 73.448C75.948 73.448 75.18 73.064 74.54 72.296C73.9427 71.528 73.644 70.6747 73.644 69.736C73.644 68.4987 74.1987 67.5387 75.308 66.856L85.228 60.712C86.508 59.944 87.724 59.56 88.876 59.56C90.0707 59.56 91.0307 59.9227 91.756 60.648C92.4813 61.3733 92.844 62.376 92.844 63.656V98.344H99.564Z" fill="black"/>
<defs>
<filter id="filter0_d" x="0" y="0" width="136" height="136" filterUnits="userSpaceOnUse" color-interpolation-filters="sRGB">
<feFlood flood-opacity="0" result="BackgroundImageFix"/>
<feColorMatrix in="SourceAlpha" type="matrix" values="0 0 0 0 0 0 0 0 0 0 0 0 0 0 0 0 0 0 127 0"/>
<feOffset/>
<feGaussianBlur stdDeviation="2"/>
<feColorMatrix type="matrix" values="0 0 0 0 0 0 0 0 0 0 0 0 0 0 0 0 0 0 0.25 0"/>
<feBlend mode="normal" in2="BackgroundImageFix" result="effect1_dropShadow"/>
<feBlend mode="normal" in="SourceGraphic" in2="effect1_dropShadow" result="shape"/>
</filter>
</defs>
</svg>
