<svg width="136" height="136" fill="none" xmlns="http://www.w3.org/2000/svg"><g filter="url(#a)"><rect x="4" y="4" width="128" height="128" rx="15" fill="#fff"/></g><path d="M4 19c0-8.284 6.716-15 15-15h98c8.284 0 15 6.716 15 15v21H4V19z" fill="#F44343"/><path d="M45.57 14.454V29h2.984v-9.503h.12l3.765 9.432h2.031l3.764-9.396h.12V29h2.984V14.454h-3.793l-4.005 9.773h-.17l-4.006-9.773H45.57zM66.38 29l1.08-3.317h5.248L73.787 29h3.295l-5.014-14.546h-3.963L63.083 29h3.296zm1.86-5.717 1.79-5.505h.114l1.79 5.505h-3.694zM78.834 29h3.075v-5.156h2.244L86.908 29h3.395l-3.09-5.653c1.655-.71 2.571-2.152 2.571-4.141 0-2.89-1.91-4.752-5.213-4.752h-5.738V29zm3.075-7.628V16.97h2.074c1.775 0 2.635.788 2.635 2.237 0 1.442-.86 2.166-2.621 2.166h-2.088z" fill="#fff"/><path d="M69.88 76.136c2.817 0 5.291.619 7.425 1.856a12.54 12.54 0 0 1 5.055 5.056c1.195 2.176 1.793 4.672 1.793 7.488 0 2.944-.683 5.547-2.049 7.808-1.322 2.261-3.22 4.032-5.695 5.312-2.433 1.237-5.249 1.856-8.449 1.856a24.55 24.55 0 0 1-7.807-1.28c-2.518-.896-4.672-2.091-6.465-3.584-.98-.853-1.471-1.856-1.471-3.008 0-.939.255-1.728.767-2.368.555-.683 1.195-1.024 1.92-1.024.427 0 .832.085 1.216.256.385.128.833.363 1.345.704 1.706 1.195 3.37 2.112 4.991 2.752 1.622.64 3.35.96 5.184.96 2.817 0 4.971-.704 6.465-2.112 1.493-1.408 2.24-3.413 2.24-6.016 0-2.517-.769-4.501-2.305-5.952-1.493-1.493-3.562-2.24-6.208-2.24-1.663 0-3.157.235-4.48.704-1.28.47-2.602 1.259-3.967 2.368-.811.555-1.643.832-2.496.832-.854 0-1.58-.256-2.177-.768s-.896-1.195-.896-2.048V63.72c0-1.195.342-2.133 1.024-2.816.683-.683 1.643-1.024 2.88-1.024h21.313c2.56 0 3.84 1.067 3.84 3.2s-1.28 3.2-3.84 3.2H61.88v12.16c2.176-1.536 4.843-2.304 8-2.304z" fill="#000"/><defs><filter id="a" x="0" y="0" width="136" height="136" filterUnits="userSpaceOnUse" color-interpolation-filters="sRGB"><feFlood flood-opacity="0" result="BackgroundImageFix"/><feColorMatrix in="SourceAlpha" values="0 0 0 0 0 0 0 0 0 0 0 0 0 0 0 0 0 0 127 0"/><feOffset/><feGaussianBlur stdDeviation="2"/><feColorMatrix values="0 0 0 0 0 0 0 0 0 0 0 0 0 0 0 0 0 0 0.25 0"/><feBlend in2="BackgroundImageFix" result="effect1_dropShadow"/><feBlend in="SourceGraphic" in2="effect1_dropShadow" result="shape"/></filter></defs></svg>