<svg width="136" height="136" fill="none" xmlns="http://www.w3.org/2000/svg"><g filter="url(#a)"><rect x="4" y="4" width="128" height="128" rx="15" fill="#fff"/></g><path d="M4 19c0-8.284 6.716-15 15-15h98c8.284 0 15 6.716 15 15v21H4V19z" fill="#F44343"/><path d="M50.68 28h3.075v-6.009h5.917v-2.535h-5.916V15.99h6.555v-2.536h-9.63V28zm11.7 0h9.829v-2.535h-6.754V21.99h6.221v-2.535h-6.221V15.99h6.726v-2.536h-9.802V28zm12.245 0h6.215c3.267 0 5.007-1.704 5.007-4.02 0-2.152-1.541-3.452-3.196-3.53v-.142c1.513-.34 2.628-1.413 2.628-3.125 0-2.18-1.62-3.729-4.83-3.729h-5.823V28zm3.076-2.514v-3.864h2.578c1.477 0 2.393.852 2.393 2.053 0 1.093-.745 1.81-2.464 1.81H77.7zm0-5.945v-3.6h2.337c1.363 0 2.137.702 2.137 1.754 0 1.15-.937 1.846-2.194 1.846H77.7z" fill="#fff"/><path d="M61.189 97.344c2.56 0 3.84 1.088 3.84 3.264 0 2.261-1.28 3.392-3.84 3.392H39.557c-2.603 0-3.904-1.131-3.904-3.392 0-2.176 1.301-3.264 3.904-3.264h6.656V68.16l-6.144 3.776c-.597.341-1.13.512-1.6.512-.896 0-1.664-.384-2.304-1.152-.597-.768-.896-1.621-.896-2.56 0-1.237.555-2.197 1.664-2.88l9.92-6.144c1.28-.768 2.496-1.152 3.648-1.152 1.195 0 2.155.363 2.88 1.088.725.725 1.088 1.728 1.088 3.008v34.688h6.72zm24.039-39.04c5.717 0 10.112 1.941 13.184 5.824 3.115 3.84 4.672 9.344 4.672 16.512 0 4.907-.725 9.173-2.176 12.8-1.45 3.584-3.541 6.336-6.272 8.256-2.688 1.92-5.867 2.88-9.536 2.88-2.432 0-4.885-.427-7.36-1.28-2.432-.896-4.501-2.091-6.208-3.584-.555-.47-.96-.917-1.216-1.344-.213-.47-.32-1.024-.32-1.664 0-.939.256-1.728.768-2.368.555-.683 1.195-1.024 1.92-1.024.427 0 .832.085 1.216.256.384.128.853.363 1.408.704 3.541 2.475 6.699 3.712 9.472 3.712 3.115 0 5.568-1.43 7.36-4.288 1.792-2.901 2.73-6.955 2.816-12.16-.981 1.92-2.453 3.456-4.416 4.608-1.963 1.11-4.16 1.664-6.592 1.664-2.688 0-5.077-.597-7.168-1.792-2.09-1.237-3.733-2.944-4.928-5.12-1.152-2.219-1.728-4.736-1.728-7.552 0-2.901.64-5.483 1.92-7.744 1.323-2.304 3.115-4.096 5.376-5.376 2.304-1.28 4.907-1.92 7.808-1.92zm.448 22.976c2.39 0 4.31-.747 5.76-2.24 1.493-1.536 2.24-3.52 2.24-5.952 0-2.475-.747-4.459-2.24-5.952-1.45-1.536-3.37-2.304-5.76-2.304-2.347 0-4.224.768-5.632 2.304-1.408 1.493-2.112 3.477-2.112 5.952s.704 4.459 2.112 5.952c1.408 1.493 3.285 2.24 5.632 2.24z" fill="#000"/><defs><filter id="a" x="0" y="0" width="136" height="136" filterUnits="userSpaceOnUse" color-interpolation-filters="sRGB"><feFlood flood-opacity="0" result="BackgroundImageFix"/><feColorMatrix in="SourceAlpha" values="0 0 0 0 0 0 0 0 0 0 0 0 0 0 0 0 0 0 127 0"/><feOffset/><feGaussianBlur stdDeviation="2"/><feColorMatrix values="0 0 0 0 0 0 0 0 0 0 0 0 0 0 0 0 0 0 0.25 0"/><feBlend in2="BackgroundImageFix" result="effect1_dropShadow"/><feBlend in="SourceGraphic" in2="effect1_dropShadow" result="shape"/></filter></defs></svg>