<svg width="136" height="136" viewBox="0 0 136 136" fill="none" xmlns="http://www.w3.org/2000/svg">
<g filter="url(#filter0_d)">
<rect x="4" y="4" width="128" height="128" rx="15" fill="white"/>
</g>
<path d="M4 19C4 10.7157 10.7157 4 19 4H117C125.284 4 132 10.7157 132 19V40H4V19Z" fill="#F44343"/>
<path d="M54.551 13.4545V23.5966C54.5439 24.9957 53.9189 25.7344 52.7825 25.7344C51.71 25.7344 51.014 25.0668 50.9927 23.9091H47.9316C47.9174 26.8139 49.9913 28.1989 52.6262 28.1989C55.5737 28.1989 57.5836 26.4162 57.5907 23.5966V13.4545H54.551ZM62.6404 28L63.72 24.6832H68.9686L70.0481 28H73.3436L68.3294 13.4545H64.3663L59.345 28H62.6404ZM64.5012 22.2827L66.291 16.7784H66.4047L68.1944 22.2827H64.5012ZM87.2605 13.4545H84.1994V22.6023H84.0716L77.7931 13.4545H75.0943V28H78.1696V18.8452H78.2761L84.6042 28H87.2605V13.4545Z" fill="white"/>
<path d="M81.9125 88.768C83.1925 88.768 84.1525 89.0453 84.7925 89.6C85.4325 90.1547 85.7525 90.944 85.7525 91.968C85.7525 94.1013 84.4725 95.168 81.9125 95.168H78.6485V100.224C78.6485 101.547 78.2645 102.571 77.4965 103.296C76.7712 104.021 75.8112 104.384 74.6165 104.384C73.4218 104.384 72.4405 104.021 71.6725 103.296C70.9472 102.571 70.5845 101.547 70.5845 100.224V95.168H53.8165C52.6645 95.168 51.7685 94.848 51.1285 94.208C50.4885 93.5253 50.1685 92.6933 50.1685 91.712C50.1685 90.688 50.5098 89.7067 51.1925 88.768L70.9685 60.352C71.3952 59.7547 71.9285 59.3067 72.5685 59.008C73.2085 58.6667 73.8698 58.496 74.5525 58.496C75.6618 58.496 76.6218 58.8587 77.4325 59.584C78.2432 60.3093 78.6485 61.3333 78.6485 62.656V88.768H81.9125ZM58.6805 88.768H70.5845V71.552L58.6805 88.768Z" fill="black"/>
<defs>
<filter id="filter0_d" x="0" y="0" width="136" height="136" filterUnits="userSpaceOnUse" color-interpolation-filters="sRGB">
<feFlood flood-opacity="0" result="BackgroundImageFix"/>
<feColorMatrix in="SourceAlpha" type="matrix" values="0 0 0 0 0 0 0 0 0 0 0 0 0 0 0 0 0 0 127 0"/>
<feOffset/>
<feGaussianBlur stdDeviation="2"/>
<feColorMatrix type="matrix" values="0 0 0 0 0 0 0 0 0 0 0 0 0 0 0 0 0 0 0.25 0"/>
<feBlend mode="normal" in2="BackgroundImageFix" result="effect1_dropShadow"/>
<feBlend mode="normal" in="SourceGraphic" in2="effect1_dropShadow" result="shape"/>
</filter>
</defs>
</svg>
