<svg width="32" height="32" fill="none" xmlns="http://www.w3.org/2000/svg"><path fill-rule="evenodd" clip-rule="evenodd" d="M16 0C7.16 0 0 7.341 0 16.405c0 7.259 4.58 13.39 10.94 15.564.8.143 1.1-.349 1.1-.78 0-.39-.02-1.681-.02-3.055-4.02.759-5.06-1.005-5.38-1.928-.18-.471-.96-1.927-1.64-2.317-.56-.307-1.36-1.066-.02-1.087 1.26-.02 2.16 1.19 2.46 1.682 1.44 2.481 3.74 1.784 4.66 1.353.14-1.066.56-1.784 1.02-2.194-3.56-.41-7.28-1.825-7.28-8.1 0-1.784.62-3.26 1.64-4.408-.16-.41-.72-2.092.16-4.348 0 0 1.34-.43 4.4 1.682a14.47 14.47 0 0 1 4-.554c1.36 0 2.72.185 4 .554 3.06-2.133 4.4-1.682 4.4-1.682.88 2.256.32 3.938.16 4.348 1.02 1.148 1.64 2.604 1.64 4.409 0 6.295-3.74 7.69-7.3 8.1.58.512 1.08 1.496 1.08 3.034 0 2.194-.02 3.958-.02 4.511 0 .431.3.944 1.1.78a16.064 16.064 0 0 0 7.892-5.985A16.716 16.716 0 0 0 32 16.404C32 7.342 24.84 0 16 0z" fill="#000"/></svg>