<svg width="30" height="30" fill="none" xmlns="http://www.w3.org/2000/svg"><path fill-rule="evenodd" clip-rule="evenodd" d="M.333 2.784A2.45 2.45 0 0 1 2.784.334h24.43a2.45 2.45 0 0 1 2.453 2.45v24.43a2.45 2.45 0 0 1-2.452 2.453H2.785a2.451 2.451 0 0 1-2.452-2.452V2.784zm11.611 8.733h3.972v1.995c.573-1.147 2.04-2.179 4.244-2.179 4.226 0 5.227 2.284 5.227 6.475v7.763H21.11v-6.808c0-2.387-.573-3.734-2.03-3.734-2.02 0-2.86 1.452-2.86 3.734v6.808h-4.277V11.517zM4.611 25.388h4.277V11.333H4.611v14.055zM9.5 6.749A2.75 2.75 0 1 1 4 6.87a2.75 2.75 0 0 1 5.5-.12z" fill="#ABB5BE"/></svg>